<?xml version="1.0" encoding="UTF-8"?>
<svg xmlns="http://www.w3.org/2000/svg" width="2172" height="724" viewBox="0 0 2172 724" role="img" aria-label="万万烧烤">
  <title>万万烧烤</title>
  <desc>Generated as true vector paths from the repaired sign image; no embedded bitmap.</desc>
  <path d="M 1688.0 112.0 L 1678.0 116.0 L 1672.0 127.0 L 1675.0 142.0 L 1675.0 177.0 L 1673.0 180.0 L 1673.0 192.0 L 1669.0 212.0 L 1667.0 255.0 L 1661.0 278.0 L 1657.0 278.0 L 1652.0 264.0 L 1662.0 250.0 L 1661.0 247.0 L 1646.0 256.0 L 1639.0 249.0 L 1630.0 244.0 L 1616.0 242.0 L 1613.0 244.0 L 1608.0 243.0 L 1600.0 254.0 L 1600.0 265.0 L 1603.0 269.0 L 1603.0 273.0 L 1615.0 289.0 L 1624.0 312.0 L 1641.0 323.0 L 1651.0 323.0 L 1641.0 358.0 L 1619.0 411.0 L 1606.0 427.0 L 1598.0 430.0 L 1593.0 436.0 L 1595.0 445.0 L 1592.0 451.0 L 1599.0 458.0 L 1597.0 464.0 L 1618.0 486.0 L 1626.0 490.0 L 1658.0 489.0 L 1672.0 476.0 L 1689.0 413.0 L 1694.0 368.0 L 1696.0 365.0 L 1704.0 370.0 L 1699.0 374.0 L 1700.0 376.0 L 1710.0 377.0 L 1724.0 386.0 L 1742.0 393.0 L 1759.0 387.0 L 1764.0 379.0 L 1765.0 373.0 L 1762.0 357.0 L 1751.0 343.0 L 1742.0 337.0 L 1701.0 326.0 L 1698.0 324.0 L 1704.0 289.0 L 1744.0 253.0 L 1751.0 249.0 L 1766.0 251.0 L 1776.0 244.0 L 1780.0 236.0 L 1777.0 218.0 L 1762.0 206.0 L 1749.0 205.0 L 1744.0 202.0 L 1732.0 206.0 L 1720.0 215.0 L 1718.0 214.0 L 1721.0 201.0 L 1721.0 166.0 L 1719.0 158.0 L 1722.0 148.0 L 1720.0 139.0 L 1711.0 126.0 L 1698.0 116.0 Z
    M 1827.0 113.0 L 1822.0 118.0 L 1822.0 122.0 L 1832.0 144.0 L 1833.0 166.0 L 1831.0 169.0 L 1808.0 179.0 L 1797.0 178.0 L 1793.0 186.0 L 1801.0 202.0 L 1811.0 212.0 L 1828.0 219.0 L 1826.0 228.0 L 1828.0 246.0 L 1810.0 251.0 L 1762.0 273.0 L 1743.0 269.0 L 1739.0 273.0 L 1737.0 284.0 L 1747.0 300.0 L 1764.0 310.0 L 1778.0 315.0 L 1788.0 314.0 L 1836.0 291.0 L 1840.0 293.0 L 1810.0 336.0 L 1771.0 383.0 L 1752.0 410.0 L 1747.0 415.0 L 1741.0 414.0 L 1738.0 417.0 L 1734.0 427.0 L 1736.0 430.0 L 1735.0 436.0 L 1746.0 457.0 L 1756.0 467.0 L 1774.0 474.0 L 1802.0 461.0 L 1819.0 420.0 L 1829.0 402.0 L 1831.0 403.0 L 1834.0 415.0 L 1846.0 428.0 L 1874.0 440.0 L 1889.0 436.0 L 1915.0 422.0 L 1938.0 414.0 L 1936.0 455.0 L 1921.0 504.0 L 1917.0 511.0 L 1909.0 519.0 L 1898.0 521.0 L 1870.0 502.0 L 1867.0 502.0 L 1872.0 514.0 L 1871.0 517.0 L 1867.0 516.0 L 1867.0 519.0 L 1886.0 555.0 L 1906.0 576.0 L 1911.0 577.0 L 1921.0 585.0 L 1927.0 587.0 L 1934.0 586.0 L 1941.0 590.0 L 1947.0 590.0 L 1954.0 586.0 L 1960.0 587.0 L 1968.0 582.0 L 1980.0 568.0 L 1992.0 530.0 L 1992.0 503.0 L 1998.0 460.0 L 1998.0 430.0 L 1993.0 403.0 L 1989.0 394.0 L 1978.0 382.0 L 1965.0 376.0 L 1938.0 373.0 L 1910.0 380.0 L 1908.0 377.0 L 1939.0 353.0 L 1951.0 349.0 L 1956.0 350.0 L 1972.0 343.0 L 1978.0 337.0 L 1981.0 330.0 L 1979.0 319.0 L 1975.0 313.0 L 1967.0 307.0 L 1961.0 305.0 L 1948.0 307.0 L 1942.0 303.0 L 1932.0 301.0 L 1922.0 315.0 L 1909.0 323.0 L 1886.0 332.0 L 1876.0 316.0 L 1875.0 311.0 L 1900.0 273.0 L 1939.0 266.0 L 1950.0 266.0 L 1972.0 274.0 L 1975.0 269.0 L 1983.0 266.0 L 1992.0 267.0 L 2004.0 261.0 L 2010.0 252.0 L 2012.0 245.0 L 2011.0 238.0 L 2005.0 226.0 L 1997.0 218.0 L 1981.0 212.0 L 1966.0 215.0 L 1936.0 214.0 L 1964.0 163.0 L 1964.0 151.0 L 1958.0 135.0 L 1940.0 116.0 L 1924.0 108.0 L 1914.0 113.0 L 1911.0 119.0 L 1914.0 132.0 L 1913.0 142.0 L 1906.0 170.0 L 1904.0 171.0 L 1894.0 157.0 L 1877.0 151.0 L 1874.0 138.0 L 1863.0 124.0 L 1844.0 114.0 Z
    M 1848.0 367.0 L 1850.0 369.0 L 1850.0 370.0 L 1856.0 376.0 L 1857.0 376.0 L 1859.0 378.0 L 1859.0 380.0 L 1858.0 381.0 L 1857.0 381.0 L 1854.0 384.0 L 1853.0 384.0 L 1852.0 385.0 L 1851.0 385.0 L 1849.0 387.0 L 1848.0 387.0 L 1846.0 389.0 L 1845.0 389.0 L 1842.0 391.0 L 1838.0 391.0 L 1837.0 392.0 L 1836.0 392.0 L 1835.0 391.0 L 1835.0 389.0 L 1836.0 388.0 L 1836.0 387.0 L 1837.0 386.0 L 1837.0 385.0 L 1840.0 380.0 L 1840.0 378.0 L 1842.0 375.0 L 1842.0 373.0 L 1844.0 371.0 L 1844.0 369.0 L 1846.0 367.0 Z
    M 1894.0 196.0 L 1895.0 197.0 L 1895.0 199.0 L 1894.0 200.0 L 1894.0 201.0 L 1893.0 202.0 L 1893.0 204.0 L 1892.0 205.0 L 1892.0 206.0 L 1891.0 207.0 L 1891.0 208.0 L 1890.0 209.0 L 1890.0 210.0 L 1889.0 211.0 L 1889.0 212.0 L 1888.0 213.0 L 1888.0 214.0 L 1885.0 219.0 L 1885.0 221.0 L 1883.0 223.0 L 1883.0 225.0 L 1879.0 230.0 L 1877.0 230.0 L 1876.0 231.0 L 1875.0 231.0 L 1874.0 230.0 L 1874.0 200.0 L 1875.0 199.0 L 1876.0 199.0 L 1879.0 197.0 L 1881.0 197.0 L 1882.0 196.0 Z
    M 976.0 122.0 L 949.0 112.0 L 929.0 110.0 L 922.0 113.0 L 913.0 110.0 L 900.0 112.0 L 894.0 106.0 L 875.0 106.0 L 858.0 113.0 L 800.0 127.0 L 768.0 137.0 L 742.0 142.0 L 728.0 147.0 L 717.0 147.0 L 704.0 154.0 L 673.0 162.0 L 668.0 162.0 L 661.0 157.0 L 654.0 157.0 L 649.0 154.0 L 639.0 155.0 L 623.0 167.0 L 616.0 168.0 L 611.0 175.0 L 607.0 177.0 L 608.0 181.0 L 605.0 184.0 L 605.0 188.0 L 619.0 215.0 L 632.0 228.0 L 638.0 230.0 L 650.0 242.0 L 660.0 247.0 L 664.0 247.0 L 670.0 243.0 L 694.0 242.0 L 712.0 235.0 L 720.0 235.0 L 810.0 197.0 L 819.0 212.0 L 817.0 224.0 L 808.0 244.0 L 799.0 276.0 L 785.0 311.0 L 763.0 354.0 L 754.0 364.0 L 751.0 375.0 L 744.0 386.0 L 731.0 397.0 L 728.0 406.0 L 699.0 439.0 L 689.0 429.0 L 683.0 426.0 L 683.0 422.0 L 679.0 419.0 L 678.0 412.0 L 675.0 408.0 L 671.0 410.0 L 668.0 418.0 L 664.0 417.0 L 661.0 420.0 L 660.0 428.0 L 653.0 431.0 L 649.0 436.0 L 651.0 446.0 L 648.0 452.0 L 653.0 462.0 L 653.0 467.0 L 663.0 476.0 L 664.0 482.0 L 671.0 487.0 L 670.0 492.0 L 674.0 499.0 L 689.0 515.0 L 702.0 521.0 L 715.0 522.0 L 732.0 515.0 L 738.0 508.0 L 745.0 504.0 L 754.0 489.0 L 753.0 484.0 L 784.0 436.0 L 808.0 390.0 L 828.0 357.0 L 845.0 322.0 L 871.0 334.0 L 887.0 346.0 L 870.0 388.0 L 849.0 432.0 L 837.0 445.0 L 823.0 442.0 L 792.0 430.0 L 790.0 432.0 L 794.0 441.0 L 792.0 448.0 L 814.0 491.0 L 823.0 500.0 L 828.0 502.0 L 837.0 513.0 L 854.0 528.0 L 869.0 532.0 L 886.0 528.0 L 889.0 529.0 L 904.0 520.0 L 917.0 507.0 L 936.0 470.0 L 948.0 436.0 L 960.0 418.0 L 963.0 408.0 L 962.0 404.0 L 966.0 395.0 L 964.0 382.0 L 968.0 369.0 L 968.0 360.0 L 960.0 336.0 L 943.0 315.0 L 916.0 301.0 L 871.0 285.0 L 880.0 275.0 L 902.0 260.0 L 906.0 255.0 L 907.0 240.0 L 897.0 223.0 L 853.0 183.0 L 884.0 175.0 L 907.0 176.0 L 924.0 182.0 L 928.0 186.0 L 920.0 190.0 L 939.0 197.0 L 946.0 202.0 L 957.0 202.0 L 977.0 213.0 L 987.0 210.0 L 994.0 214.0 L 1005.0 206.0 L 1012.0 205.0 L 1019.0 198.0 L 1024.0 188.0 L 1024.0 182.0 L 1011.0 154.0 L 1001.0 142.0 Z
    M 492.0 131.0 L 450.0 111.0 L 440.0 109.0 L 425.0 110.0 L 419.0 108.0 L 393.0 110.0 L 389.0 106.0 L 374.0 105.0 L 360.0 112.0 L 294.0 127.0 L 233.0 144.0 L 218.0 145.0 L 203.0 153.0 L 169.0 162.0 L 163.0 162.0 L 157.0 157.0 L 152.0 158.0 L 145.0 155.0 L 137.0 155.0 L 101.0 180.0 L 99.0 190.0 L 105.0 197.0 L 105.0 203.0 L 117.0 216.0 L 119.0 221.0 L 136.0 231.0 L 144.0 241.0 L 157.0 247.0 L 166.0 243.0 L 191.0 242.0 L 199.0 238.0 L 210.0 236.0 L 270.0 213.0 L 292.0 200.0 L 303.0 196.0 L 307.0 197.0 L 316.0 215.0 L 306.0 242.0 L 300.0 268.0 L 272.0 333.0 L 243.0 382.0 L 229.0 397.0 L 228.0 402.0 L 214.0 416.0 L 213.0 422.0 L 195.0 439.0 L 189.0 435.0 L 186.0 429.0 L 180.0 427.0 L 175.0 419.0 L 173.0 410.0 L 168.0 409.0 L 164.0 419.0 L 158.0 419.0 L 156.0 421.0 L 156.0 428.0 L 146.0 434.0 L 147.0 445.0 L 144.0 452.0 L 149.0 466.0 L 160.0 476.0 L 161.0 483.0 L 168.0 488.0 L 166.0 493.0 L 185.0 515.0 L 198.0 521.0 L 212.0 522.0 L 230.0 514.0 L 247.0 498.0 L 252.0 489.0 L 251.0 483.0 L 270.0 456.0 L 275.0 443.0 L 289.0 424.0 L 340.0 322.0 L 348.0 323.0 L 364.0 330.0 L 379.0 339.0 L 383.0 344.0 L 370.0 375.0 L 364.0 397.0 L 349.0 429.0 L 336.0 443.0 L 324.0 442.0 L 289.0 430.0 L 287.0 433.0 L 291.0 443.0 L 289.0 449.0 L 308.0 477.0 L 311.0 488.0 L 322.0 499.0 L 327.0 501.0 L 338.0 515.0 L 354.0 529.0 L 365.0 532.0 L 385.0 529.0 L 399.0 522.0 L 413.0 509.0 L 419.0 496.0 L 426.0 488.0 L 446.0 440.0 L 447.0 432.0 L 457.0 414.0 L 460.0 398.0 L 463.0 393.0 L 461.0 383.0 L 463.0 355.0 L 451.0 325.0 L 442.0 315.0 L 414.0 300.0 L 366.0 283.0 L 377.0 272.0 L 394.0 261.0 L 402.0 253.0 L 405.0 240.0 L 400.0 227.0 L 394.0 219.0 L 350.0 182.0 L 378.0 174.0 L 414.0 176.0 L 427.0 182.0 L 425.0 185.0 L 422.0 185.0 L 421.0 188.0 L 437.0 193.0 L 447.0 199.0 L 461.0 200.0 L 472.0 206.0 L 482.0 204.0 L 487.0 208.0 L 492.0 208.0 L 501.0 201.0 L 509.0 200.0 L 520.0 188.0 L 522.0 180.0 L 518.0 164.0 L 502.0 140.0 Z
    M 1144.0 111.0 L 1140.0 116.0 L 1140.0 120.0 L 1149.0 133.0 L 1155.0 157.0 L 1160.0 203.0 L 1159.0 221.0 L 1135.0 234.0 L 1125.0 217.0 L 1118.0 210.0 L 1097.0 203.0 L 1089.0 208.0 L 1084.0 215.0 L 1089.0 238.0 L 1080.0 260.0 L 1080.0 266.0 L 1087.0 282.0 L 1102.0 302.0 L 1114.0 312.0 L 1125.0 312.0 L 1132.0 307.0 L 1137.0 300.0 L 1149.0 310.0 L 1142.0 352.0 L 1120.0 419.0 L 1114.0 423.0 L 1107.0 432.0 L 1107.0 437.0 L 1110.0 442.0 L 1108.0 452.0 L 1124.0 472.0 L 1134.0 481.0 L 1137.0 481.0 L 1147.0 488.0 L 1158.0 491.0 L 1165.0 491.0 L 1176.0 485.0 L 1190.0 472.0 L 1195.0 451.0 L 1201.0 365.0 L 1207.0 369.0 L 1217.0 382.0 L 1232.0 392.0 L 1251.0 401.0 L 1263.0 399.0 L 1275.0 390.0 L 1279.0 379.0 L 1279.0 370.0 L 1281.0 369.0 L 1291.0 380.0 L 1312.0 393.0 L 1325.0 396.0 L 1326.0 399.0 L 1309.0 421.0 L 1290.0 440.0 L 1285.0 439.0 L 1271.0 458.0 L 1246.0 480.0 L 1235.0 485.0 L 1215.0 480.0 L 1218.0 507.0 L 1231.0 525.0 L 1251.0 542.0 L 1272.0 547.0 L 1282.0 540.0 L 1292.0 537.0 L 1299.0 528.0 L 1315.0 492.0 L 1334.0 460.0 L 1336.0 461.0 L 1336.0 509.0 L 1344.0 529.0 L 1360.0 546.0 L 1388.0 559.0 L 1418.0 562.0 L 1502.0 548.0 L 1515.0 543.0 L 1543.0 526.0 L 1555.0 511.0 L 1557.0 496.0 L 1546.0 471.0 L 1534.0 452.0 L 1517.0 436.0 L 1476.0 422.0 L 1441.0 418.0 L 1434.0 421.0 L 1427.0 420.0 L 1425.0 422.0 L 1438.0 443.0 L 1445.0 461.0 L 1445.0 471.0 L 1441.0 484.0 L 1430.0 497.0 L 1414.0 504.0 L 1398.0 507.0 L 1391.0 505.0 L 1387.0 501.0 L 1384.0 492.0 L 1384.0 474.0 L 1380.0 447.0 L 1373.0 429.0 L 1366.0 420.0 L 1395.0 392.0 L 1411.0 382.0 L 1414.0 371.0 L 1412.0 368.0 L 1413.0 362.0 L 1405.0 349.0 L 1390.0 344.0 L 1372.0 346.0 L 1371.0 343.0 L 1395.0 323.0 L 1408.0 341.0 L 1431.0 364.0 L 1454.0 379.0 L 1484.0 388.0 L 1491.0 387.0 L 1509.0 378.0 L 1515.0 372.0 L 1520.0 361.0 L 1518.0 346.0 L 1504.0 322.0 L 1502.0 305.0 L 1491.0 279.0 L 1488.0 266.0 L 1482.0 268.0 L 1470.0 302.0 L 1450.0 293.0 L 1433.0 282.0 L 1452.0 268.0 L 1464.0 268.0 L 1476.0 260.0 L 1478.0 247.0 L 1470.0 229.0 L 1456.0 218.0 L 1438.0 215.0 L 1425.0 220.0 L 1401.0 225.0 L 1396.0 224.0 L 1418.0 200.0 L 1438.0 192.0 L 1445.0 186.0 L 1448.0 180.0 L 1449.0 169.0 L 1440.0 152.0 L 1425.0 142.0 L 1415.0 140.0 L 1402.0 144.0 L 1393.0 143.0 L 1381.0 146.0 L 1370.0 142.0 L 1358.0 145.0 L 1341.0 142.0 L 1330.0 145.0 L 1280.0 92.0 L 1265.0 87.0 L 1258.0 92.0 L 1287.0 148.0 L 1311.0 205.0 L 1300.0 224.0 L 1280.0 246.0 L 1260.0 261.0 L 1246.0 267.0 L 1244.0 270.0 L 1246.0 279.0 L 1256.0 286.0 L 1269.0 289.0 L 1299.0 287.0 L 1325.0 274.0 L 1343.0 261.0 L 1363.0 285.0 L 1346.0 309.0 L 1330.0 325.0 L 1291.0 354.0 L 1285.0 353.0 L 1278.0 363.0 L 1266.0 341.0 L 1250.0 326.0 L 1229.0 314.0 L 1221.0 314.0 L 1200.0 304.0 L 1201.0 268.0 L 1210.0 257.0 L 1225.0 244.0 L 1247.0 231.0 L 1253.0 232.0 L 1269.0 225.0 L 1275.0 215.0 L 1275.0 208.0 L 1271.0 197.0 L 1263.0 188.0 L 1249.0 180.0 L 1235.0 178.0 L 1208.0 192.0 L 1204.0 175.0 L 1179.0 129.0 L 1169.0 118.0 L 1160.0 112.0 L 1151.0 109.0 Z
    M 1157.0 228.0 L 1158.0 229.0 L 1158.0 240.0 L 1157.0 241.0 L 1157.0 247.0 L 1156.0 248.0 L 1156.0 253.0 L 1155.0 254.0 L 1155.0 256.0 L 1153.0 258.0 L 1153.0 259.0 L 1151.0 261.0 L 1150.0 261.0 L 1150.0 262.0 L 1149.0 263.0 L 1148.0 263.0 L 1147.0 262.0 L 1147.0 260.0 L 1146.0 259.0 L 1146.0 256.0 L 1145.0 255.0 L 1145.0 252.0 L 1144.0 251.0 L 1144.0 248.0 L 1147.0 243.0 L 1147.0 241.0 L 1148.0 240.0 L 1149.0 237.0 L 1152.0 234.0 L 1152.0 233.0 L 1154.0 231.0 L 1154.0 230.0 L 1156.0 228.0 Z" fill="#d00000" fill-rule="evenodd"/>
</svg>
